<svg height="512pt" viewBox="0 0 512 512" width="512pt" xmlns="http://www.w3.org/2000/svg"><path d="m406 91c-9 0-17.699219 1.5-26.398438 3.898438-21-51.300782-68.699218-88.597657-123.601562-93.996094-4.800781-.601563-9.902344-.902344-15-.902344-72.300781 0-132.597656 52-146.398438 121.300781-1.199218 0-2.402343-.300781-3.601562-.300781-49.5 0-91 40.5-91 90s41.5 90 91 90h315c57.898438 0 106-47.101562 106-105s-48.101562-105-106-105zm0 0" fill="#e6e6ff"/><path d="m512 196c0 57.898438-48.101562 105-106 105h-150v-300.097656c54.902344 5.398437 102.597656 42.699218 123.601562 93.996094 8.699219-2.398438 17.398438-3.898438 26.398438-3.898438 57.898438 0 106 47.101562 106 105zm0 0" fill="#c3c3e5"/><path d="m301 361v-120h-90v120h-75l120 151 120-151zm0 0" fill="#78b9eb"/><path d="m376 361-120 151v-271h45v120zm0 0" fill="#43a2dd"/></svg>