<svg height="512pt" viewBox="0 0 512 511" width="512pt" xmlns="http://www.w3.org/2000/svg"><path d="m465.097656 110.304688c-49.199218-70.800782-128.097656-110.398438-210-109.796876-32.699218.300782-65.996094 6.898438-98.097656 20.398438-78 32.703125-134.402344 101.699219-150.902344 184.5l-2.398437 12.601562 86.398437 32.699219 2.703125-18.601562c8.097657-56.699219 45.898438-105.898438 98.695313-128.398438 19.804687-8.101562 41.402344-12.597656 63.601562-12.898437 50.699219-.601563 103.5 21.597656 137.703125 73.796875l-47.703125 35.699219 166.902344 62.101562v-186.597656zm0 0" fill="#78b9eb"/><path d="m421.601562 261.507812-2.402343 18.300782c-8.398438 56.699218-46.199219 105.601562-99 128.101562-20.101563 8.398438-42.300781 13.898438-65.101563 13.898438-50.097656 0-101.996094-22.902344-135.898437-74.800782l47.402343-35.398437-138-52.203125-28.601562-9.898438v186.300782l46.902344-34.5c48.898437 70.5 126.898437 110.5 208.195312 110.5 33.300782 0 67.203125-7.300782 99.902344-21.101563 78-32.699219 134.402344-101.699219 150.902344-184.5l2.398437-12.597656zm0 0" fill="#78b9eb"/><g fill="#43a2dd"><path d="m421.601562 261.507812 86.699219 32.101563-2.398437 12.597656c-16.5 82.800781-72.902344 151.800781-150.902344 184.5-32.699219 13.800781-66.597656 21.101563-99.902344 21.101563v-90c22.800782 0 45-5.503906 65.101563-13.902344 52.800781-22.5 90.601562-71.398438 99-128.101562zm0 0"/><path d="m512 75.808594v186.597656l-166.902344-62.097656 47.703125-35.703125c-34.199219-52.199219-87-74.398438-137.703125-73.796875v-90.300782c81.902344-.601562 160.800782 39 210 109.800782zm0 0"/></g></svg>